<svg xmlns="http://www.w3.org/2000/svg" viewBox="0 0 1456 582" preserveAspectRatio="xMidYMid" width="1456" height="582" style="shape-rendering: auto; display: block; background: rgb(153, 204, 255);"><g data-idx="1"><defs data-idx="2">
<linearGradient y2="1" y1="0" x2="0" x1="0" id="lg-0.6590519274487807" data-idx="3">
  <stop offset="0" stop-color="#3184ce" data-idx="4"></stop>
  <stop offset="1" stop-color="#e9f6ff" data-idx="5"></stop>
</linearGradient>
</defs>
<rect fill="url(#lg-0.6590519274487807)" height="582" width="1456" y="0" x="0" data-idx="6"></rect><circle fill="#91cbf0" r="87.97000810825973" cy="104.43599027008833" cx="0" data-idx="7" transform="matrix(1,0,0,1,-3.483156681060791,0)">

</circle><circle fill="#91cbf0" r="73.04003152741286" cy="132.94316903363324" cx="87.97000810825973" data-idx="9" transform="matrix(1,0,0,1,-3.123650550842285,0)">

</circle><circle fill="#91cbf0" r="64.49646651848087" cy="149.7216774808473" cx="161.0100396356726" data-idx="11" transform="matrix(1,0,0,1,-2.7821340560913086,0)">

</circle><circle fill="#91cbf0" r="70.72304043361001" cy="151.42109722601248" cx="225.50650615415347" data-idx="13" transform="matrix(1,0,0,1,-2.4604997634887695,0)">

</circle><circle fill="#91cbf0" r="35.01620246678864" cy="185.07863469913187" cx="296.2295465877635" data-idx="15" transform="matrix(1,0,0,1,-2.160003662109375,0)">

</circle><circle fill="#91cbf0" r="91.24378012584413" cy="150.32743246605423" cx="331.2457490545521" data-idx="17" transform="matrix(1,0,0,1,-1.8813343048095703,0)">

</circle><circle fill="#91cbf0" r="78.97236630873554" cy="170.23040964936263" cx="422.48952918039623" data-idx="19" transform="matrix(1,0,0,1,-1.6247196197509766,0)">

</circle><circle fill="#91cbf0" r="58.14489085412977" cy="188.28785709711119" cx="501.4618954891318" data-idx="21" transform="matrix(1,0,0,1,-1.3900156021118164,0)">

</circle><circle fill="#91cbf0" r="35.63079850141334" cy="200.10991538767797" cx="559.6067863432615" data-idx="23" transform="matrix(1,0,0,1,-1.1767969131469727,0)">

</circle><circle fill="#91cbf0" r="66.60680088360473" cy="195.42382458613648" cx="595.2375848446749" data-idx="25" transform="matrix(1,0,0,1,-0.9844436645507812,0)">

</circle><circle fill="#91cbf0" r="69.8572789625591" cy="202.38222329485873" cx="661.8443857282796" data-idx="27" transform="matrix(1,0,0,1,-0.8121986389160156,0)">

</circle><circle fill="#91cbf0" r="40.62534352937435" cy="209.75211857192988" cx="731.7016646908387" data-idx="29" transform="matrix(1,0,0,1,-0.6592226028442383,0)">

</circle><circle fill="#91cbf0" r="80.41153107185744" cy="204.12461110084263" cx="772.3270082202131" data-idx="31" transform="matrix(1,0,0,1,-0.5246343612670898,0)">

</circle><circle fill="#91cbf0" r="83.38517116922058" cy="192.85492673032772" cx="852.7385392920705" data-idx="33" transform="matrix(1,0,0,1,-0.40753746032714844,0)">

</circle><circle fill="#91cbf0" r="31.93733375787143" cy="199.04354438912827" cx="936.1237104612911" data-idx="35" transform="matrix(1,0,0,1,-0.30704307556152344,0)">

</circle><circle fill="#91cbf0" r="73.76372484198069" cy="180.81132393781175" cx="968.0610442191626" data-idx="37" transform="matrix(1,0,0,1,-0.22228145599365234,0)">

</circle><circle fill="#91cbf0" r="73.60817560611127" cy="171.92296366384622" cx="1041.8247690611433" data-idx="39" transform="matrix(1,0,0,1,-0.15241718292236328,0)">

</circle><circle fill="#91cbf0" r="87.48523896292998" cy="154.12967514341804" cx="1115.4329446672546" data-idx="41" transform="matrix(1,0,0,1,-0.09665298461914062,0)">

</circle><circle fill="#91cbf0" r="62.4365731843411" cy="161.1226418756038" cx="1202.9181836301846" data-idx="43" transform="matrix(1,0,0,1,-0.054228782653808594,0)">

</circle><circle fill="#91cbf0" r="40.375028932684664" cy="174.23783430741395" cx="1265.3547568145257" data-idx="45" transform="matrix(1,0,0,1,-0.0244293212890625,0)">

</circle><circle fill="#91cbf0" r="79.52183048461347" cy="134.27121414049168" cx="1305.7297857472104" data-idx="47" transform="matrix(1,0,0,1,-0.0065822601318359375,0)">

</circle><circle fill="#91cbf0" r="34.94768933975688" cy="172.1383099415557" cx="1385.2516162318238" data-idx="49" transform="matrix(1,0,0,1,-0.00005340576171875,0)">

</circle><circle fill="#91cbf0" r="42.74258273715709" cy="161.23123172143522" cx="1420.1993055715807" data-idx="51" transform="matrix(1,0,0,1,-0.004390068352222443,0)">

</circle><circle fill="#91cbf0" r="65.80553651645397" cy="130.28036494191383" cx="1462.9418883087378" data-idx="53" transform="matrix(1,0,0,1,-0.019924452528357506,0)">

</circle><circle fill="#a8d1f5" r="62.619377563966665" cy="196.85674692324" cx="0" data-idx="55" transform="matrix(1,0,0,1,-9.624317169189453,0)">

</circle><circle fill="#a8d1f5" r="46.62174882918156" cy="220.86614023898258" cx="62.619377563966665" data-idx="57" transform="matrix(1,0,0,1,-9.383047103881836,0)">

</circle><circle fill="#a8d1f5" r="42.664975480710055" cy="228.48461730070093" cx="109.24112639314822" data-idx="59" transform="matrix(1,0,0,1,-9.069310188293457,0)">

</circle><circle fill="#a8d1f5" r="91.14005921361702" cy="185.45291430579118" cx="151.9061018738583" data-idx="61" transform="matrix(1,0,0,1,-8.676187515258789,0)">

</circle><circle fill="#a8d1f5" r="90.66296908291761" cy="199.5263380703817" cx="243.0461610874753" data-idx="63" transform="matrix(1,0,0,1,-8.197972297668457,0)">

</circle><circle fill="#a8d1f5" r="39.07931999617318" cy="246.60117735114173" cx="333.7091301703929" data-idx="65" transform="matrix(1,0,0,1,-7.631919860839844,0)">

</circle><circle fill="#a8d1f5" r="65.27969425379263" cy="233.77785488701804" cx="372.78845016656607" data-idx="67" transform="matrix(1,0,0,1,-6.980803489685059,0)">

</circle><circle fill="#a8d1f5" r="72.44466010819319" cy="237.37799769449748" cx="438.0681444203587" data-idx="69" transform="matrix(1,0,0,1,-6.255849361419678,0)">

</circle><circle fill="#a8d1f5" r="49.67680674621238" cy="254.19109442987224" cx="510.5128045285519" data-idx="71" transform="matrix(1,0,0,1,-5.478703022003174,0)">

</circle><circle fill="#a8d1f5" r="89.50740217802674" cy="247.24130996711978" cx="560.1896112747643" data-idx="73" transform="matrix(1,0,0,1,-4.68039608001709,0)">

</circle><circle fill="#a8d1f5" r="36.3282996593942" cy="267.3110752315728" cx="649.697013452791" data-idx="75" transform="matrix(1,0,0,1,-3.896296501159668,0)">

</circle><circle fill="#a8d1f5" r="87.49464355597426" cy="265.9463292291929" cx="686.0253131121852" data-idx="77" transform="matrix(1,0,0,1,-3.158832550048828,0)">

</circle><circle fill="#a8d1f5" r="50.26949266801114" cy="268.2281344044315" cx="773.5199566681595" data-idx="79" transform="matrix(1,0,0,1,-2.491731643676758,0)">

</circle><circle fill="#a8d1f5" r="47.94774608753214" cy="264.4293051736782" cx="823.7894493361706" data-idx="81" transform="matrix(1,0,0,1,-1.908212661743164,0)">

</circle><circle fill="#a8d1f5" r="75.02896812998074" cy="254.22342837164098" cx="871.7371954237027" data-idx="83" transform="matrix(1,0,0,1,-1.4125127792358398,0)">

</circle><circle fill="#a8d1f5" r="70.58354444240884" cy="246.54732215216478" cx="946.7661635536834" data-idx="85" transform="matrix(1,0,0,1,-1.002762794494629,0)">

</circle><circle fill="#a8d1f5" r="81.98436317758208" cy="232.8975523972325" cx="1017.3497079960923" data-idx="87" transform="matrix(1,0,0,1,-0.6736793518066406,0)">

</circle><circle fill="#a8d1f5" r="59.88973879614779" cy="235.34214198565684" cx="1099.3340711736744" data-idx="89" transform="matrix(1,0,0,1,-0.418487548828125,0)">

</circle><circle fill="#a8d1f5" r="72.76621834979801" cy="220.2771550869848" cx="1159.2238099698222" data-idx="91" transform="matrix(1,0,0,1,-0.23007488250732422,0)">

</circle><circle fill="#a8d1f5" r="77.77037951961874" cy="207.39203992881275" cx="1231.9900283196203" data-idx="93" transform="matrix(1,0,0,1,-0.10161685943603516,0)">

</circle><circle fill="#a8d1f5" r="46.354205606394906" cy="227.54883259564798" cx="1309.760407839239" data-idx="95" transform="matrix(1,0,0,1,-0.026861190795898438,0)">

</circle><circle fill="#a8d1f5" r="52.56378820540778" cy="217.57788432437712" cx="1356.114613445634" data-idx="97" transform="matrix(1,0,0,1,-0.000213623046875,0)">

</circle><circle fill="#a8d1f5" r="40.24141752779965" cy="226.84923555550296" cx="1408.6784016510417" data-idx="99" transform="matrix(1,0,0,1,-0.017849452793598175,0)">

</circle><circle fill="#a8d1f5" r="40.79222758967081" cy="223.52539779475666" cx="1448.9198191788414" data-idx="101" transform="matrix(1,0,0,1,-0.0825568363070488,0)">

</circle><circle fill="#a8d1f5" r="37.060145651288686" cy="225.4684185754138" cx="1489.7120467685122" data-idx="103" transform="matrix(1,0,0,1,-0.19979281723499298,0)">

</circle><circle fill="#bdd7f8" r="52.35237288928889" cy="271.17715253285337" cx="0" data-idx="105" transform="matrix(1,0,0,1,-8.782270431518555,0)">

</circle><circle fill="#bdd7f8" r="45.44129603161357" cy="283.39180686275535" cx="52.35237288928889" data-idx="107" transform="matrix(1,0,0,1,-9.311695098876953,0)">

</circle><circle fill="#bdd7f8" r="81.18955240988412" cy="249.6601594293618" cx="97.79366892090246" data-idx="109" transform="matrix(1,0,0,1,-9.674153327941895,0)">

</circle><circle fill="#bdd7f8" r="45.31998215824633" cy="292.9866528342858" cx="178.9832213307866" data-idx="111" transform="matrix(1,0,0,1,-9.893290519714355,0)">

</circle><circle fill="#bdd7f8" r="75.30264305481484" cy="271.47851635903453" cx="224.3032034890329" data-idx="113" transform="matrix(1,0,0,1,-9.990775108337402,0)">

</circle><circle fill="#bdd7f8" r="83.50138983364398" cy="275.0359771260504" cx="299.60584654384775" data-idx="115" transform="matrix(1,0,0,1,-9.984106063842773,0)">

</circle><circle fill="#bdd7f8" r="42.06319084630678" cy="310.08688438830154" cx="383.10723637749174" data-idx="117" transform="matrix(1,0,0,1,-9.871532440185547,0)">

</circle><circle fill="#bdd7f8" r="42.29357445826174" cy="312.8883322785046" cx="425.1704272237985" data-idx="119" transform="matrix(1,0,0,1,-9.63459587097168,0)">

</circle><circle fill="#bdd7f8" r="77.24415170981821" cy="300.8271172858134" cx="467.46400168206026" data-idx="121" transform="matrix(1,0,0,1,-9.251242637634277,0)">

</circle><circle fill="#bdd7f8" r="35.4947313786473" cy="323.2759974847503" cx="544.7081533918785" data-idx="123" transform="matrix(1,0,0,1,-8.697802543640137,0)">

</circle><circle fill="#bdd7f8" r="41.5426479702955" cy="323.87931286428034" cx="580.2028847705258" data-idx="125" transform="matrix(1,0,0,1,-7.954083442687988,0)">

</circle><circle fill="#bdd7f8" r="49.24632951687281" cy="325.3747650978814" cx="621.7455327408213" data-idx="127" transform="matrix(1,0,0,1,-7.015209674835205,0)">

</circle><circle fill="#bdd7f8" r="87.64676927521016" cy="325.7638806117979" cx="670.9918622576942" data-idx="129" transform="matrix(1,0,0,1,-5.9108734130859375,0)">

</circle><circle fill="#bdd7f8" r="35.185398000457205" cy="332.22302344284407" cx="758.6386315329044" data-idx="131" transform="matrix(1,0,0,1,-4.7202253341674805,0)">

</circle><circle fill="#bdd7f8" r="85.88298766821187" cy="324.6815972801884" cx="793.8240295333616" data-idx="133" transform="matrix(1,0,0,1,-3.556964874267578,0)">

</circle><circle fill="#bdd7f8" r="62.80466053220229" cy="318.29465761148714" cx="879.7070172015734" data-idx="135" transform="matrix(1,0,0,1,-2.523136615753174,0)">

</circle><circle fill="#bdd7f8" r="84.38291682560498" cy="304.162987263192" cx="942.5116777337757" data-idx="137" transform="matrix(1,0,0,1,-1.6742572784423828,0)">

</circle><circle fill="#bdd7f8" r="74.94806387365327" cy="297.07433324528654" cx="1026.8945945593807" data-idx="139" transform="matrix(1,0,0,1,-1.0212621688842773,0)">

</circle><circle fill="#bdd7f8" r="48.21992878127087" cy="304.285714782898" cx="1101.842658433034" data-idx="141" transform="matrix(1,0,0,1,-0.5501117706298828,0)">

</circle><circle fill="#bdd7f8" r="82.415849204256" cy="276.66267053415555" cx="1150.062587214305" data-idx="143" transform="matrix(1,0,0,1,-0.2380075454711914,0)">

</circle><circle fill="#bdd7f8" r="68.32294261911275" cy="277.18551989449713" cx="1232.4784364185612" data-idx="145" transform="matrix(1,0,0,1,-0.06167793273925781,0)">

</circle><circle fill="#bdd7f8" r="46.04989039720271" cy="290.5207021032119" cx="1300.801379037674" data-idx="147" transform="matrix(1,0,0,1,-0.0004825592041015625,0)">

</circle><circle fill="#bdd7f8" r="53.455959368082446" cy="279.4704038783566" cx="1346.8512694348767" data-idx="149" transform="matrix(1,0,0,1,-0.04083530604839325,0)">

</circle><circle fill="#bdd7f8" r="47.62867126073907" cy="281.21796705460224" cx="1400.3072288029591" data-idx="151" transform="matrix(1,0,0,1,-0.19259941577911377,0)">

</circle><circle fill="#bdd7f8" r="68.89570330547765" cy="252.24095026964193" cx="1447.9359000636982" data-idx="153" transform="matrix(1,0,0,1,-0.4757571220397949,0)">

</circle><circle fill="#bdd7f8" r="47.96585209241535" cy="271.6313516268757" cx="1516.8316033691758" data-idx="155" transform="matrix(1,0,0,1,-0.9131923913955688,0)">

</circle><circle fill="#cfddfa" r="72.33378287043926" cy="309.1994605554729" cx="0" data-idx="157" transform="matrix(1,0,0,1,-1.7502598762512207,0)">

</circle><circle fill="#cfddfa" r="40.68183168874202" cy="352.0323582045182" cx="72.33378287043926" data-idx="159" transform="matrix(1,0,0,1,-2.9504923820495605,0)">

</circle><circle fill="#cfddfa" r="47.42691895984327" cy="347.92283306065264" cx="113.01561455918129" data-idx="161" transform="matrix(1,0,0,1,-4.44205379486084,0)">

</circle><circle fill="#cfddfa" r="37.35861460328567" cy="361.0497351832747" cx="160.44253351902455" data-idx="163" transform="matrix(1,0,0,1,-6.026904106140137,0)">

</circle><circle fill="#cfddfa" r="56.56485150778899" cy="346.56491319879933" cx="197.80114812231022" data-idx="165" transform="matrix(1,0,0,1,-7.445174217224121,0)">

</circle><circle fill="#cfddfa" r="80.59139743039326" cy="333.0810561093005" cx="254.36599963009922" data-idx="167" transform="matrix(1,0,0,1,-8.541845321655273,0)">

</circle><circle fill="#cfddfa" r="92.28188163791411" cy="336.2131137970528" cx="334.9573970604925" data-idx="169" transform="matrix(1,0,0,1,-9.29685115814209,0)">

</circle><circle fill="#cfddfa" r="72.27193199407236" cy="360.1705081378073" cx="427.2392786984066" data-idx="171" transform="matrix(1,0,0,1,-9.753889083862305,0)">

</circle><circle fill="#cfddfa" r="47.40573162989754" cy="378.14558534117714" cx="499.511210692479" data-idx="173" transform="matrix(1,0,0,1,-9.967914581298828,0)">

</circle><circle fill="#cfddfa" r="61.25622162393574" cy="377.7157188239993" cx="546.9169423223765" data-idx="175" transform="matrix(1,0,0,1,-9.98594856262207,0)">

</circle><circle fill="#cfddfa" r="59.28248492497474" cy="384.29071549127445" cx="608.1731639463122" data-idx="177" transform="matrix(1,0,0,1,-9.814465522766113,0)">

</circle><circle fill="#cfddfa" r="74.91360104307196" cy="388.5237439024153" cx="667.4556488712869" data-idx="179" transform="matrix(1,0,0,1,-9.410320281982422,0)">

</circle><circle fill="#cfddfa" r="43.404117889872744" cy="394.97194843306835" cx="742.3692499143589" data-idx="181" transform="matrix(1,0,0,1,-8.719254493713379,0)">

</circle><circle fill="#cfddfa" r="92.43009083756029" cy="387.1978060975765" cx="785.7733678042316" data-idx="183" transform="matrix(1,0,0,1,-7.692461967468262,0)">

</circle><circle fill="#cfddfa" r="52.55755623618605" cy="382.98737353115007" cx="878.2034586417919" data-idx="185" transform="matrix(1,0,0,1,-6.331141471862793,0)">

</circle><circle fill="#cfddfa" r="58.63949080060473" cy="376.4014241758377" cx="930.761014877978" data-idx="187" transform="matrix(1,0,0,1,-4.760178565979004,0)">

</circle><circle fill="#cfddfa" r="90.13136656333474" cy="357.1642008838065" cx="989.4005056785827" data-idx="189" transform="matrix(1,0,0,1,-3.2297286987304688,0)">

</circle><circle fill="#cfddfa" r="73.65093928673866" cy="353.3231001431159" cx="1079.5318722419174" data-idx="191" transform="matrix(1,0,0,1,-1.962630271911621,0)">

</circle><circle fill="#cfddfa" r="31.077054235251797" cy="374.2196220432315" cx="1153.1828115286562" data-idx="193" transform="matrix(1,0,0,1,-1.0400075912475586,0)">

</circle><circle fill="#cfddfa" r="63.47583669215447" cy="348.26130209602064" cx="1184.259865763908" data-idx="195" transform="matrix(1,0,0,1,-0.440887451171875,0)">

</circle><circle fill="#cfddfa" r="59.837137279189704" cy="344.737093554792" cx="1247.7357024560624" data-idx="197" transform="matrix(1,0,0,1,-0.11194992065429688,0)">

</circle><circle fill="#cfddfa" r="54.67722181279162" cy="343.76467134910894" cx="1307.572839735252" data-idx="199" transform="matrix(1,0,0,1,-0.0008592605590820312,0)">

</circle><circle fill="#cfddfa" r="89.3214928725831" cy="302.6173148043973" cx="1362.2500615480437" data-idx="201" transform="matrix(1,0,0,1,-0.07381678372621536,0)">

</circle><circle fill="#cfddfa" r="83.08959289816335" cy="296.8990122700531" cx="1451.5715544206269" data-idx="203" transform="matrix(1,0,0,1,-0.3552650213241577,0)">

</circle><circle fill="#cfddfa" r="41.89465034227508" cy="340.29430761821015" cx="1534.6611473187902" data-idx="205" transform="matrix(1,0,0,1,-0.8958500027656555,0)">

</circle><circle fill="#dfe5fb" r="74.68882522005681" cy="368.37340973593183" cx="0" data-idx="207" transform="matrix(1,0,0,1,-0.17862987518310547,0)">

</circle><circle fill="#dfe5fb" r="81.97036547638453" cy="369.7272157694757" cx="74.68882522005681" data-idx="209" transform="matrix(1,0,0,1,-0.0013456344604492188,0)">

</circle><circle fill="#dfe5fb" r="58.71913535038282" cy="402.7000467373193" cx="156.65919069644133" data-idx="211" transform="matrix(1,0,0,1,-0.11731300503015518,0)">

</circle><circle fill="#dfe5fb" r="42.882313137355624" cy="421.7652695437547" cx="215.37832604682416" data-idx="213" transform="matrix(1,0,0,1,-0.5763132572174072,0)">

</circle><circle fill="#dfe5fb" r="33.07455076675966" cy="432.39051922563505" cx="258.2606391841798" data-idx="215" transform="matrix(1,0,0,1,-1.481276512145996,0)">

</circle><circle fill="#dfe5fb" r="72.6063091767921" cy="405.7396370246473" cx="291.3351899509395" data-idx="217" transform="matrix(1,0,0,1,-2.9164252281188965,0)">

</circle><circle fill="#dfe5fb" r="49.2477319272429" cy="428.4466118844098" cx="363.94149912773156" data-idx="219" transform="matrix(1,0,0,1,-4.800074577331543,0)">

</circle><circle fill="#dfe5fb" r="71.78585069343174" cy="420.74896891839774" cx="413.18923105497447" data-idx="221" transform="matrix(1,0,0,1,-6.734562397003174,0)">

</circle><circle fill="#dfe5fb" r="67.56407087475797" cy="430.93447340480833" cx="484.9750817484062" data-idx="223" transform="matrix(1,0,0,1,-8.275267601013184,0)">

</circle><circle fill="#dfe5fb" r="44.80609904550441" cy="445.0411272975143" cx="552.5391526231641" data-idx="225" transform="matrix(1,0,0,1,-9.281837463378906,0)">

</circle><circle fill="#dfe5fb" r="51.70176622301191" cy="446.86525067996763" cx="597.3452516686685" data-idx="227" transform="matrix(1,0,0,1,-9.821369171142578,0)">

</circle><circle fill="#dfe5fb" r="88.13157515749208" cy="446.53035602760303" cx="649.0470178916804" data-idx="229" transform="matrix(1,0,0,1,-9.99865436553955,0)">

</circle><circle fill="#dfe5fb" r="73.9213003498568" cy="456.88160406553243" cx="737.1785930491725" data-idx="231" transform="matrix(1,0,0,1,-9.88268756866455,0)">

</circle><circle fill="#dfe5fb" r="50.81538112024325" cy="451.03941853715946" cx="811.0998933990293" data-idx="233" transform="matrix(1,0,0,1,-9.423686981201172,0)">

</circle><circle fill="#dfe5fb" r="68.49021569321097" cy="442.8815065333398" cx="861.9152745192725" data-idx="235" transform="matrix(1,0,0,1,-8.518723487854004,0)">

</circle><circle fill="#dfe5fb" r="49.74641082468316" cy="441.40283516052483" cx="930.4054902124835" data-idx="237" transform="matrix(1,0,0,1,-7.083574295043945,0)">

</circle><circle fill="#dfe5fb" r="40.20247563258258" cy="441.2904439717208" cx="980.1519010371667" data-idx="239" transform="matrix(1,0,0,1,-5.199923992156982,0)">

</circle><circle fill="#dfe5fb" r="77.67293860084946" cy="420.56919195259496" cx="1020.3543766697493" data-idx="241" transform="matrix(1,0,0,1,-3.2654385566711426,0)">

</circle><circle fill="#dfe5fb" r="48.26257381903587" cy="428.56296051927427" cx="1098.0273152705988" data-idx="243" transform="matrix(1,0,0,1,-1.7247323989868164,0)">

</circle><circle fill="#dfe5fb" r="42.27659382635825" cy="428.8507608636567" cx="1146.2898890896347" data-idx="245" transform="matrix(1,0,0,1,-0.7181625366210938,0)">

</circle><circle fill="#dfe5fb" r="92.49649681889102" cy="387.7789238100105" cx="1188.566482915993" data-idx="247" transform="matrix(1,0,0,1,-0.17862987518310547,0)">

</circle><circle fill="#dfe5fb" r="79.54105630597579" cy="385.48701052992885" cx="1281.062979734884" data-idx="249" transform="matrix(1,0,0,1,-0.0013456344604492188,0)">

</circle><circle fill="#dfe5fb" r="66.62349851864731" cy="388.52808671748596" cx="1360.60403604086" data-idx="251" transform="matrix(1,0,0,1,-0.11731300503015518,0)">

</circle><circle fill="#dfe5fb" r="55.306864795396926" cy="394.2548087113713" cx="1427.2275345595071" data-idx="253" transform="matrix(1,0,0,1,-0.5763132572174072,0)">

</circle><circle fill="#dfe5fb" r="78.42229429592103" cy="360.4632108968028" cx="1482.534399354904" data-idx="255" transform="matrix(1,0,0,1,-1.481276512145996,0)">

</circle><circle fill="#ecedfc" r="82.23063161155912" cy="421.32324206612907" cx="0" data-idx="257" transform="matrix(1,0,0,1,-5.6365814208984375,0)">

</circle><circle fill="#ecedfc" r="66.10226342241049" cy="449.6371150010939" cx="82.23063161155912" data-idx="259" transform="matrix(1,0,0,1,-3.3009910583496094,0)">

</circle><circle fill="#ecedfc" r="48.38660462270843" cy="473.76683018552524" cx="148.3328950339696" data-idx="261" transform="matrix(1,0,0,1,-1.5044479370117188,0)">

</circle><circle fill="#ecedfc" r="53.46344782720061" cy="473.1800758598117" cx="196.71949965667804" data-idx="263" transform="matrix(1,0,0,1,-0.4638547897338867,0)">

</circle><circle fill="#ecedfc" r="48.42574548366803" cy="481.8593731215899" cx="250.18294748387865" data-idx="265" transform="matrix(1,0,0,1,-0.03776836395263672,0)">

</circle><circle fill="#ecedfc" r="45.59750338752429" cy="487.72664025771576" cx="298.6086929675467" data-idx="267" transform="matrix(1,0,0,1,-0.06563250720500946,0)">

</circle><circle fill="#ecedfc" r="62.20178954206068" cy="480.64945922768874" cx="344.206196355071" data-idx="269" transform="matrix(1,0,0,1,-0.5632460713386536,0)">

</circle><circle fill="#ecedfc" r="88.96678072101892" cy="472.83900076870214" cx="406.40798589713165" data-idx="271" transform="matrix(1,0,0,1,-1.6996076107025146,0)">

</circle><circle fill="#ecedfc" r="72.18762834909471" cy="492.31978479342246" cx="495.3747666181506" data-idx="273" transform="matrix(1,0,0,1,-3.594468832015991,0)">

</circle><circle fill="#ecedfc" r="51.261549774476784" cy="506.4434940504103" cx="567.5623949672453" data-idx="275" transform="matrix(1,0,0,1,-5.950021266937256,0)">

</circle><circle fill="#ecedfc" r="38.95551564122921" cy="512.9895447336348" cx="618.823944741722" data-idx="277" transform="matrix(1,0,0,1,-7.982329368591309,0)">

</circle><circle fill="#ecedfc" r="54.69898370837054" cy="513.6686942541111" cx="657.7794603829512" data-idx="279" transform="matrix(1,0,0,1,-9.266778945922852,0)">

</circle><circle fill="#ecedfc" r="35.62332864830422" cy="519.0885777682398" cx="712.4784440913218" data-idx="281" transform="matrix(1,0,0,1,-9.877227783203125,0)">

</circle><circle fill="#ecedfc" r="34.19325299745025" cy="518.8670137346429" cx="748.101772739626" data-idx="283" transform="matrix(1,0,0,1,-9.989266395568848,0)">

</circle><circle fill="#ecedfc" r="49.57894267363189" cy="515.5628187332717" cx="782.2950257370762" data-idx="285" transform="matrix(1,0,0,1,-9.66441535949707,0)">

</circle><circle fill="#ecedfc" r="69.09249044081015" cy="508.1699266437376" cx="831.8739684107081" data-idx="287" transform="matrix(1,0,0,1,-8.761277198791504,0)">

</circle><circle fill="#ecedfc" r="74.66598441772159" cy="498.71201496473196" cx="900.9664588515183" data-idx="289" transform="matrix(1,0,0,1,-7.117128849029541,0)">

</circle><circle fill="#ecedfc" r="73.91616937799" cy="489.82850282388796" cx="975.6324432692398" data-idx="291" transform="matrix(1,0,0,1,-4.839693069458008,0)">

</circle><circle fill="#ecedfc" r="76.68369742692701" cy="479.35570903249175" cx="1049.54861264723" data-idx="293" transform="matrix(1,0,0,1,-2.6184473037719727,0)">

</circle><circle fill="#ecedfc" r="44.5961578048296" cy="490.72588306090836" cx="1126.2323100741569" data-idx="295" transform="matrix(1,0,0,1,-1.0778818130493164,0)">

</circle><circle fill="#ecedfc" r="50.55008816415096" cy="483.101618528222" cx="1170.8284678789864" data-idx="297" transform="matrix(1,0,0,1,-0.26267147064208984,0)">

</circle><circle fill="#ecedfc" r="82.67548581795782" cy="452.7632222862161" cx="1221.3785560431375" data-idx="299" transform="matrix(1,0,0,1,-0.0019350051879882812,0)">

</circle><circle fill="#ecedfc" r="84.23259190248308" cy="440.01781589803045" cx="1304.0540418610954" data-idx="301" transform="matrix(1,0,0,1,-0.17192043364048004,0)">

</circle><circle fill="#ecedfc" r="41.93104933157285" cy="474.36289327474924" cx="1388.2866337635785" data-idx="303" transform="matrix(1,0,0,1,-0.8619600534439087,0)">

</circle><circle fill="#ecedfc" r="62.576582128031475" cy="447.56750134402245" cx="1430.2176830951514" data-idx="305" transform="matrix(1,0,0,1,-2.248145818710327,0)">

</circle><circle fill="#ecedfc" r="82.95687922928684" cy="415.4204195131251" cx="1492.794265223183" data-idx="307" transform="matrix(1,0,0,1,-4.363442420959473,0)">

</circle><circle fill="#f7f5fd" r="54.35038205814649" cy="516.7795415302243" cx="0" data-idx="309" transform="matrix(1,0,0,1,-9.970568656921387,0)">

</circle><circle fill="#f7f5fd" r="50.82810351399346" cy="525.5598914622351" cx="54.35038205814649" data-idx="311" transform="matrix(1,0,0,1,-9.449782371520996,0)">

</circle><circle fill="#f7f5fd" r="45.66033741242444" cy="535.1237794013847" cx="105.17848557213995" data-idx="313" transform="matrix(1,0,0,1,-8.064497947692871,0)">

</circle><circle fill="#f7f5fd" r="85.81413735061884" cy="500.3594694760757" cx="150.8388229845644" data-idx="315" transform="matrix(1,0,0,1,-5.676016330718994,0)">

</circle><circle fill="#f7f5fd" r="82.04686469543392" cy="515.5492020628332" cx="236.65296033518322" data-idx="317" transform="matrix(1,0,0,1,-2.9845075607299805,0)">

</circle><circle fill="#f7f5fd" r="59.95237830875272" cy="541.5518918709838" cx="318.69982503061715" data-idx="319" transform="matrix(1,0,0,1,-1.0972471237182617,0)">

</circle><circle fill="#f7f5fd" r="33.81548555581256" cy="562.5274197165949" cx="378.65220333936986" data-idx="321" transform="matrix(1,0,0,1,-0.19254016876220703,0)">

</circle><circle fill="#f7f5fd" r="53.53867528802257" cy="554.1540956915602" cx="412.4676888951824" data-idx="323" transform="matrix(1,0,0,1,-0.009236852638423443,0)">

</circle><circle fill="#f7f5fd" r="39.114064385717604" cy="565.1082924066159" cx="466.00636418320494" data-idx="325" transform="matrix(1,0,0,1,-0.4296831786632538,0)">

</circle><circle fill="#f7f5fd" r="64.33834145520584" cy="558.363128620677" cx="505.12042856892253" data-idx="327" transform="matrix(1,0,0,1,-1.6744654178619385,0)">

</circle><circle fill="#f7f5fd" r="47.12318485879189" cy="569.6852180968792" cx="569.4587700241284" data-idx="329" transform="matrix(1,0,0,1,-3.9349145889282227,0)">

</circle><circle fill="#f7f5fd" r="76.34836055004293" cy="567.9781564609125" cx="616.5819548829203" data-idx="331" transform="matrix(1,0,0,1,-6.662929058074951,0)">

</circle><circle fill="#f7f5fd" r="46.69596082788757" cy="579.3006385437549" cx="692.9303154329632" data-idx="333" transform="matrix(1,0,0,1,-8.697982788085938,0)">

</circle><circle fill="#f7f5fd" r="78.52552563781877" cy="580.4951217781421" cx="739.6262762608508" data-idx="335" transform="matrix(1,0,0,1,-9.728768348693848,0)">

</circle><circle fill="#f7f5fd" r="47.86189973416273" cy="574.887632137371" cx="818.1518018986695" data-idx="337" transform="matrix(1,0,0,1,-9.99951457977295,0)">

</circle><circle fill="#f7f5fd" r="32.96442585529521" cy="574.5007542288621" cx="866.0137016328323" data-idx="339" transform="matrix(1,0,0,1,-9.674072265625,0)">

</circle><circle fill="#f7f5fd" r="42.87005452991492" cy="569.9178434359801" cx="898.9781274881275" data-idx="341" transform="matrix(1,0,0,1,-8.564608573913574,0)">

</circle><circle fill="#f7f5fd" r="65.78304326539208" cy="558.8116743792555" cx="941.8481820180424" data-idx="343" transform="matrix(1,0,0,1,-6.442718505859375,0)">

</circle><circle fill="#f7f5fd" r="83.02640347600914" cy="543.7305907666924" cx="1007.6312252834344" data-idx="345" transform="matrix(1,0,0,1,-3.706160545349121,0)">

</circle><circle fill="#f7f5fd" r="86.46963351604985" cy="530.3095512352273" cx="1090.6576287594435" data-idx="347" transform="matrix(1,0,0,1,-1.5280437469482422,0)">

</circle><circle fill="#f7f5fd" r="55.37675331037717" cy="541.003500646162" cx="1177.1272622754934" data-idx="349" transform="matrix(1,0,0,1,-0.36531734466552734,0)">

</circle><circle fill="#f7f5fd" r="77.34759869434893" cy="517.6777349386426" cx="1232.5040155858705" data-idx="351" transform="matrix(1,0,0,1,-0.0026407241821289062,0)">

</circle><circle fill="#f7f5fd" r="80.39635638574617" cy="504.892170749515" cx="1309.8516142802196" data-idx="353" transform="matrix(1,0,0,1,-0.23807653784751892,0)">

</circle><circle fill="#f7f5fd" r="63.487238465111446" cy="512.6962173021325" cx="1390.2479706659658" data-idx="355" transform="matrix(1,0,0,1,-1.217907428741455,0)">

</circle><circle fill="#f7f5fd" r="91.62833140932558" cy="472.3880666082222" cx="1453.7352091310772" data-idx="357" transform="matrix(1,0,0,1,-3.1944570541381836,0)">

</circle><circle fill="#ffffff" r="56.63993056976296" cy="576.0320833162845" cx="0" data-idx="359" transform="matrix(1,0,0,1,-7.316490173339844,0)">

</circle><circle fill="#ffffff" r="79.42148862089297" cy="556.109204206414" cx="56.63993056976296" data-idx="361" transform="matrix(1,0,0,1,-9.23566722869873,0)">

</circle><circle fill="#ffffff" r="45.55890820082128" cy="599.5471283566748" cx="136.06141919065593" data-idx="363" transform="matrix(1,0,0,1,-9.956003189086914,0)">

</circle><circle fill="#ffffff" r="83.68078622234479" cy="568.6349221212276" cx="181.6203273914772" data-idx="365" transform="matrix(1,0,0,1,-9.841249465942383,0)">

</circle><circle fill="#ffffff" r="70.77721811561699" cy="590.0188901039435" cx="265.301113613822" data-idx="367" transform="matrix(1,0,0,1,-8.802849769592285,0)">

</circle><circle fill="#ffffff" r="41.66766876043903" cy="617.0816556260389" cx="336.078331729439" data-idx="369" transform="matrix(1,0,0,1,-6.480029106140137,0)">

</circle><circle fill="#ffffff" r="76.72900287055181" cy="599.7011426365367" cx="377.74600048987804" data-idx="371" transform="matrix(1,0,0,1,-3.373579502105713,0)">

</circle><circle fill="#ffffff" r="34.966643926518714" cy="628.2347508310471" cx="454.47500336042987" data-idx="373" transform="matrix(1,0,0,1,-1.1169462203979492,0)">

</circle><circle fill="#ffffff" r="83.68702101282975" cy="611.0919155885442" cx="489.4416472869486" data-idx="375" transform="matrix(1,0,0,1,-0.134246826171875,0)">

</circle><circle fill="#ffffff" r="60.39956553540802" cy="628.5810530517855" cx="573.1286682997784" data-idx="377" transform="matrix(1,0,0,1,-0.0578882172703743,0)">

</circle><circle fill="#ffffff" r="88.54157605901874" cy="630.2120674681676" cx="633.5282338351864" data-idx="379" transform="matrix(1,0,0,1,-0.8285268545150757,0)">

</circle><circle fill="#ffffff" r="58.50368848965316" cy="643.4281241846695" cx="722.0698098942052" data-idx="381" transform="matrix(1,0,0,1,-2.8153862953186035,0)">

</circle><circle fill="#ffffff" r="80.88081696390515" cy="636.9908997253785" cx="780.5734983838584" data-idx="383" transform="matrix(1,0,0,1,-5.872002601623535,0)">

</circle><circle fill="#ffffff" r="41.287519451113035" cy="634.9175863064465" cx="861.4543153477634" data-idx="385" transform="matrix(1,0,0,1,-8.447959899902344,0)">

</circle><circle fill="#ffffff" r="86.52825689375297" cy="619.076747739182" cx="902.7418347988764" data-idx="387" transform="matrix(1,0,0,1,-9.719992637634277,0)">

</circle><circle fill="#ffffff" r="71.76791901069376" cy="613.0920701420113" cx="989.2700916926294" data-idx="389" transform="matrix(1,0,0,1,-9.992154121398926,0)">

</circle><circle fill="#ffffff" r="56.637102905886564" cy="612.9082833783914" cx="1061.0380107033232" data-idx="391" transform="matrix(1,0,0,1,-9.462719917297363,0)">

</circle><circle fill="#ffffff" r="31.751549471483074" cy="623.6052934380738" cx="1117.6751136092098" data-idx="393" transform="matrix(1,0,0,1,-7.810948371887207,0)">

</circle><circle fill="#ffffff" r="61.30280357087502" cy="601.4154352532445" cx="1149.4266630806928" data-idx="395" transform="matrix(1,0,0,1,-4.920038223266602,0)">

</circle><circle fill="#ffffff" r="57.46598029955571" cy="598.2738648011857" cx="1210.729466651568" data-idx="397" transform="matrix(1,0,0,1,-2.0741124153137207,0)">

</circle><circle fill="#ffffff" r="82.20447624517918" cy="570.8024992527787" cx="1268.1954469511236" data-idx="399" transform="matrix(1,0,0,1,-0.4877185821533203,0)">

</circle><circle fill="#ffffff" r="60.53223649620781" cy="581.897924154714" cx="1350.3999231963028" data-idx="401" transform="matrix(1,0,0,1,-0.0034627914428710938,0)">

</circle><circle fill="#ffffff" r="54.63184540872744" cy="582.5002568577424" cx="1410.9321596925106" data-idx="403" transform="matrix(1,0,0,1,-0.31636160612106323,0)">

</circle><circle fill="#ffffff" r="42.98693210290505" cy="591.7379992162083" cx="1465.564005101238" data-idx="405" transform="matrix(1,0,0,1,-1.6493691205978394,0)">

</circle><circle fill="#ffffff" r="36.63891705405838" cy="596.8595477285328" cx="1508.550937204143" data-idx="407" transform="matrix(1,0,0,1,-4.284351348876953,0)">

</circle><g data-idx="409"></g></g></svg>